<?xml version="1.0" encoding="UTF-8" standalone="no"?>
<svg
   xmlns:dc="http://purl.org/dc/elements/1.1/"
   xmlns:cc="http://creativecommons.org/ns#"
   xmlns:rdf="http://www.w3.org/1999/02/22-rdf-syntax-ns#"
   xmlns:svg="http://www.w3.org/2000/svg"
   xmlns="http://www.w3.org/2000/svg"
   xmlns:sodipodi="http://sodipodi.sourceforge.net/DTD/sodipodi-0.dtd"
   xmlns:inkscape="http://www.inkscape.org/namespaces/inkscape"
   id="Camada_1"
   data-name="Camada 1"
   viewBox="0 0 535 336.99998"
   version="1.1"
   sodipodi:docname="logo.svg"
   width="535"
   height="337"
   inkscape:version="1.0.1 (3bc2e813f5, 2020-09-07)">
  <metadata
     id="metadata83">
    <rdf:RDF>
      <cc:Work
         rdf:about="">
        <dc:format>image/svg+xml</dc:format>
        <dc:type
           rdf:resource="http://purl.org/dc/dcmitype/StillImage" />
        <dc:title></dc:title>
      </cc:Work>
    </rdf:RDF>
  </metadata>
  <sodipodi:namedview
     pagecolor="#ffffff"
     bordercolor="#666666"
     borderopacity="1"
     objecttolerance="10"
     gridtolerance="10"
     guidetolerance="10"
     inkscape:pageopacity="0"
     inkscape:pageshadow="2"
     inkscape:window-width="1920"
     inkscape:window-height="1001"
     id="namedview81"
     showgrid="false"
     inkscape:zoom="0.69715089"
     inkscape:cx="231.83566"
     inkscape:cy="308.07953"
     inkscape:window-x="-9"
     inkscape:window-y="-9"
     inkscape:window-maximized="1"
     inkscape:current-layer="Camada_1" />
  <defs
     id="defs4">
    <style
       id="style2">.cls-1{fill:#575756;}.cls-2{fill:#dccbcf;}.cls-3{fill:#debcb3;}</style>
  </defs>
  <path
     class="cls-1"
     d="M 0.9881612,256.03313 H 11.628161 c 9.63,0 16.28,6.62 16.28,15.24 v 0.09 c 0,8.62 -6.65,15.32 -16.28,15.32 H 0.9881612 Z m 3.46,3.2 v 24.25 h 7.1799998 c 7.75,0 12.7,-5.25 12.7,-12 v -0.08 c 0,-6.79 -4.95,-12.13 -12.7,-12.13 z"
     id="path6" />
  <path
     class="cls-1"
     d="m 39.608161,256.03313 h 13.17 c 3.77,0 6.79,1.14 8.72,3.07 a 8.49,8.49 0 0 1 2.36,6 v 0.09 c 0,5.08 -3.5,8.05 -8.32,8.93 l 9.41,12.52 h -4.24 l -8.89,-11.91 h -8.75 v 11.91 h -3.46 z m 12.91,15.63 c 4.6,0 7.88,-2.36 7.88,-6.3 v -0.09 c 0,-3.76 -2.89,-6 -7.84,-6 h -9.45 v 12.43 z"
     id="path8" />
  <path
     class="cls-1"
     d="m 86.978161,255.82313 h 3.24 l 13.999999,30.86 h -3.72 l -3.589999,-8.1 h -16.72 l -3.63,8.1 h -3.55 z m 8.54,19.61 -7,-15.53 -7,15.58 z"
     id="path10" />
  <path
     class="cls-1"
     d="m 113.64816,282.08313 h 4 v 4.6 h -4 z"
     id="path12" />
  <path
     class="cls-1"
     d="m 129.05816,256.03313 h 6.74 v 24.52 h 15.27 v 6.13 h -22 z"
     id="path14" />
  <path
     class="cls-1"
     d="m 171.03816,255.82313 h 6.21 l 13.14,30.86 h -7.05 l -2.82,-6.88 h -13 l -2.8,6.88 h -6.87 z m 7.09,18 -4.07,-9.92 -4.07,10 z"
     id="path16" />
  <path
     class="cls-1"
     d="m 203.30816,274.59313 -11.79,-18.56 h 7.88 l 7.31,12.31 7.44,-12.31 h 7.66 l -11.77,18.44 v 12.21 h -6.74 z"
     id="path18" />
  <path
     class="cls-1"
     d="m 226.42816,271.44313 v -0.08 a 15.57,15.57 0 0 1 16,-15.85 c 5.78,0 9.24,1.93 12.08,4.73 l -4.28,4.94 c -2.37,-2.14 -4.78,-3.46 -7.84,-3.46 -5.17,0 -8.89,4.3 -8.89,9.55 v 0.09 c 0,5.25 3.64,9.63 8.89,9.63 3.5,0 5.65,-1.41 8.05,-3.59 l 4.29,4.33 a 15.65,15.65 0 0 1 -12.56,5.47 15.46,15.46 0 0 1 -15.74,-15.76 z"
     id="path20" />
  <path
     class="cls-1"
     d="m 264.51816,256.03313 h 23.11 v 6 h -16.46 v 6.22 h 14.44 v 6 h -14.44 v 6.43 h 16.63 v 6 h -23.28 z"
     id="path22" />
  <path
     class="cls-1"
     d="m 306.93816,259.23313 h -10.29 v -3.2 h 24.07 v 3.2 h -10.28 v 27.45 h -3.5 z"
     id="path24" />
  <path
     class="cls-1"
     d="m 331.58816,256.03313 h 22.15 v 3.16 h -18.7 v 10.46 h 16.73 v 3.15 h -16.73 v 10.72 h 18.92 v 3.16 h -22.37 z"
     id="path26" />
  <path
     class="cls-1"
     d="m 365.60816,256.03313 h 3.45 v 30.65 h -3.45 z"
     id="path28" />
  <path
     class="cls-1"
     d="m 407.36816,256.03313 -11.3,15 11.74,15.63 h -4.12 l -9.81,-13.22 -9.8,13.22 h -4 l 11.73,-15.63 -11.3,-15 h 4.07 l 9.37,12.61 9.37,-12.61 z"
     id="path30" />
  <path
     class="cls-1"
     d="m 418.51816,256.03313 h 22.15 v 3.16 h -18.67 v 10.46 h 16.72 v 3.15 h -16.72 v 10.72 h 18.91 v 3.16 h -22.39 z"
     id="path32" />
  <path
     class="cls-1"
     d="m 452.51816,256.03313 h 3.46 v 30.65 h -3.46 z"
     id="path34" />
  <path
     class="cls-1"
     d="m 469.36816,256.03313 h 13.15 c 3.77,0 6.79,1.14 8.71,3.07 a 8.46,8.46 0 0 1 2.37,6 v 0.09 c 0,5.08 -3.51,8.05 -8.32,8.93 l 9.41,12.52 h -4.17 l -8.89,-11.91 h -8.75 v 11.91 h -3.46 z m 12.87,15.63 c 4.59,0 7.87,-2.36 7.87,-6.3 v -0.09 c 0,-3.76 -2.88,-6 -7.83,-6 h -9.45 v 12.43 z"
     id="path36" />
  <path
     class="cls-1"
     d="m 516.73816,255.82313 h 3.24 l 14,30.86 h -3.76 l -3.59,-8.1 h -16.68 l -3.63,8.1 h -3.55 z m 8.53,19.61 -7,-15.58 -7,15.58 z"
     id="path38" />
  <path
     class="cls-2"
     d="m 50.698161,315.16313 h 11.9 v 1.74 h -10.08 v 5.62 h 9 v 1.69 h -9 v 5.69 h 10.2 v 1.69 h -12 z"
     id="path40" />
  <path
     class="cls-2"
     d="m 73.518161,315.16313 h 1.74 l 10.37,13.19 v -13.19 h 1.81 v 16.45 h -1.48 l -10.64,-13.49 v 13.49 h -1.8 z"
     id="path42" />
  <path
     class="cls-2"
     d="m 99.138161,315.16313 h 5.719999 c 5.17,0 8.74,3.55 8.74,8.18 v 0 c 0,4.63 -3.57,8.23 -8.74,8.23 h -5.719999 z m 1.859999,1.71 v 13 h 3.86 c 4.16,0 6.81,-2.83 6.81,-6.47 v 0 c 0,-3.64 -2.65,-6.51 -6.81,-6.51 z"
     id="path44" />
  <path
     class="cls-2"
     d="m 123.85816,323.43313 v 0 a 8.39,8.39 0 1 1 16.78,0 v 0 a 8.34,8.34 0 0 1 -8.42,8.47 8.25,8.25 0 0 1 -8.36,-8.47 z m 14.85,0 v 0 a 6.54,6.54 0 0 0 -6.49,-6.79 6.47,6.47 0 0 0 -6.44,6.75 v 0 a 6.55,6.55 0 0 0 6.49,6.8 6.47,6.47 0 0 0 6.44,-6.76 z"
     id="path46" />
  <path
     class="cls-2"
     d="m 150.42816,329.22313 1.15,-1.37 a 7.85,7.85 0 0 0 5.64,2.33 c 2.21,0 3.67,-1.18 3.67,-2.8 v -0.05 c 0,-1.53 -0.82,-2.39 -4.28,-3.12 -3.78,-0.83 -5.52,-2.05 -5.52,-4.75 v -0.05 c 0,-2.58 2.28,-4.49 5.41,-4.49 a 8.59,8.59 0 0 1 5.78,2 l -1.09,1.44 a 7.18,7.18 0 0 0 -4.74,-1.79 c -2.14,0 -3.51,1.18 -3.51,2.66 v 0 c 0,1.55 0.85,2.42 4.47,3.19 3.62,0.77 5.36,2.14 5.36,4.66 v 0 c 0,2.82 -2.35,4.66 -5.62,4.66 a 9.62,9.62 0 0 1 -6.72,-2.52 z"
     id="path48" />
  <path
     class="cls-2"
     d="m 172.87816,323.43313 v 0 a 8.28,8.28 0 0 1 8.32,-8.5 8.59,8.59 0 0 1 6.42,2.6 l -1.27,1.37 a 7.13,7.13 0 0 0 -5.17,-2.26 6.45,6.45 0 0 0 -6.37,6.75 v 0 a 6.5,6.5 0 0 0 6.37,6.8 7.11,7.11 0 0 0 5.34,-2.39 l 1.23,1.2 a 8.58,8.58 0 0 1 -6.58,2.89 8.21,8.21 0 0 1 -8.29,-8.46 z"
     id="path50" />
  <path
     class="cls-2"
     d="m 196.81816,323.43313 v 0 a 8.4,8.4 0 1 1 16.79,0 v 0 a 8.34,8.34 0 0 1 -8.42,8.51 8.25,8.25 0 0 1 -8.37,-8.51 z m 14.86,0 v 0 a 6.55,6.55 0 0 0 -6.49,-6.79 6.47,6.47 0 0 0 -6.44,6.75 v 0 a 6.55,6.55 0 0 0 6.49,6.8 6.47,6.47 0 0 0 6.44,-6.76 z"
     id="path52" />
  <path
     class="cls-2"
     d="m 224.58816,315.16313 h 6.16 c 3.71,0 6.16,2 6.16,5.22 v 0 c 0,3.55 -3,5.38 -6.47,5.38 h -4 v 5.81 h -1.86 z m 5.92,8.95 c 2.73,0 4.52,-1.45 4.52,-3.62 v 0 c 0,-2.35 -1.77,-3.58 -4.42,-3.58 h -4.16 v 7.24 z"
     id="path54" />
  <path
     class="cls-2"
     d="m 247.51816,315.16313 h 1.85 v 16.45 h -1.85 z"
     id="path56" />
  <path
     class="cls-2"
     d="m 267.33816,315.04313 h 1.74 l 7.5,16.57 h -2 l -1.93,-4.35 h -9 l -1.95,4.35 h -1.9 z m 4.58,10.53 -3.74,-8.37 -3.76,8.37 z"
     id="path58" />
  <path
     class="cls-2"
     d="m 300.98816,315.16313 h 5.71 c 5.17,0 8.74,3.55 8.74,8.18 v 0 c 0,4.63 -3.57,8.23 -8.74,8.23 h -5.71 z m 1.85,1.71 v 13 h 3.86 c 4.16,0 6.81,-2.83 6.81,-6.47 v 0 c 0,-3.64 -2.65,-6.51 -6.81,-6.51 z"
     id="path60" />
  <path
     class="cls-2"
     d="m 326.58816,315.16313 h 1.86 v 16.45 h -1.86 z"
     id="path62" />
  <path
     class="cls-2"
     d="m 339.59816,323.43313 v 0 a 8.25,8.25 0 0 1 8.25,-8.5 8.68,8.68 0 0 1 6.13,2.18 l -1.2,1.41 a 7,7 0 0 0 -5,-1.88 c -3.64,0 -6.25,3.08 -6.25,6.75 v 0 c 0,3.93 2.52,6.84 6.52,6.84 a 7.71,7.71 0 0 0 4.74,-1.64 v -4.09 h -5 v -1.67 h 6.8 v 6.56 a 10,10 0 0 1 -6.61,2.51 c -5.19,0 -8.38,-3.77 -8.38,-8.47 z"
     id="path64" />
  <path
     class="cls-2"
     d="m 365.80816,315.16313 h 11.9 v 1.74 h -10 v 5.62 h 9 v 1.69 h -9 v 5.69 h 10.16 v 1.69 h -12 z"
     id="path66" />
  <path
     class="cls-2"
     d="m 387.51816,329.22313 1.15,-1.37 a 7.85,7.85 0 0 0 5.64,2.33 c 2.21,0 3.67,-1.18 3.67,-2.8 v -0.05 c 0,-1.53 -0.82,-2.39 -4.28,-3.12 -3.78,-0.83 -5.52,-2.05 -5.52,-4.75 v -0.05 c 0,-2.58 2.28,-4.49 5.41,-4.49 a 8.59,8.59 0 0 1 5.78,2 l -1.08,1.44 a 7.22,7.22 0 0 0 -4.75,-1.79 c -2.14,0 -3.5,1.18 -3.5,2.66 v 0 c 0,1.55 0.84,2.42 4.46,3.19 3.62,0.77 5.36,2.14 5.36,4.66 v 0 c 0,2.82 -2.35,4.66 -5.62,4.66 a 9.64,9.64 0 0 1 -6.72,-2.52 z"
     id="path68" />
  <path
     class="cls-2"
     d="m 414.71816,316.90313 h -5.52 v -1.71 h 12.93 v 1.71 h -5.53 v 14.74 h -1.88 z"
     id="path70" />
  <path
     class="cls-2"
     d="m 432.82816,315.16313 h 1.86 v 16.45 h -1.86 z"
     id="path72" />
  <path
     class="cls-2"
     d="m 445.14816,315.16313 h 2.07 l 5.85,14.17 5.88,-14.17 h 2 l -7.08,16.57 h -1.64 z"
     id="path74" />
  <path
     class="cls-2"
     d="m 474.98816,315.04313 h 1.74 l 7.49,16.57 h -2 l -1.93,-4.35 h -9 l -2,4.35 h -1.77 z m 4.58,10.53 -3.74,-8.37 -3.76,8.37 z"
     id="path76" />
  <path
     class="cls-3"
     d="m 445.45816,184.97313 c -10.19,-0.24 -20.39,-0.12 -30.58,0.24 -10.19,0.36 -20.37,0.91 -30.53,1.71 -40.67,3.14 -81,9.33 -121.3,15.55 -20.14,3.1 -40.28,6.22 -60.49,8.64 -10.1,1.21 -20.23,2.23 -30.36,2.82 a 228,228 0 0 1 -30.37,0 112.38,112.38 0 0 1 -14.89,-2.26 57.66,57.66 0 0 1 -13.86,-5.16 30.94,30.94 0 0 1 -10.74,-9.42 c -2.729999,-3.9 -4.139999,-10.16 -4.779999,-14.93 a 91.35,91.35 0 0 1 1.17,-15.59 169.49,169.49 0 0 1 12.719999,-42.76 384.83,384.83 0 0 1 38.18,-67.520004 c 0.7,0 1.41,-0.35 2.47,-0.35 a 249.52,249.52 0 0 1 28.28,-2.48 c 9.19,0 18.73,1.07 27.92,0.71 a 1.43,1.43 0 0 0 0.36,-2.83 c -8.84,-2.47 -19.09,-2.82 -28.28,-2.47 a 139.88,139.88 0 0 0 -27.22,2.47 37.45,37.45 0 0 1 2.48,-3.88 q 7.41,-10.56 14.88,-20.13 c 2.47,-3.53 5,-6.72 7.42,-10.25 a 53.84,53.84 0 0 0 6.72,-10.6099998 c 0.35,-0.7 -1.06,-1.76 -1.77,-1.06 a 49.17,49.17 0 0 0 -7.42,7.4299998 c -2.48,3.18 -5.3,6.36 -7.78,9.54 -4.95,6.36 -9.54,12.37 -14.14,18.74 -2.82,3.88 -5.3,7.77 -8.13,11.31 -16.61,3.53 -33.22,8.83 -47.709999,17 -1.06,0.36 -0.36,2.12 0.7,1.77 a 268.44,268.44 0 0 1 43.479999,-13.43 c -4.95,7.77 -9.9,15.55 -14.49,23.33 -12.36,21.240004 -23.78,43.640004 -29.879999,67.500004 -0.55,1.6 -1.09,3.21 -1.58,4.84 -0.79,2.46 -1.34,5 -2,7.51 -0.51,2.56 -1.1,5.11 -1.36,7.73 -0.15,1.31 -0.25,2.63 -0.35,3.94 -0.1,1.31 0,2.65 0,4 0,0.66 0,1.32 0,2 l 0.2,2 a 31.7,31.7 0 0 0 0.54,4 c 0.09,0.53 0.2,1.07 0.32,1.6 -0.6,0.64 -1.23,1.25 -1.86,1.85 -1.27,1.09 -2.56,2.16 -3.91,3.14 a 94.34,94.34 0 0 1 -8.39,5.48 72.7,72.7 0 0 1 -18.3,7.71 34.83,34.83 0 0 1 -9.7,1.13 20.33,20.33 0 0 1 -6.68,-1.35 l -0.06,-0.06 c -13.43,-6 -11.67,-25.45 -9.9,-37.47 2.12,-14.49 6.72,-29 12.72,-42.76 a 385.47,385.47 0 0 1 38.18,-67.520004 c 0.71,0 5.3,-7.77 6,-8.83 q 7.43,-10.61 14.839999,-20.15 c 2.48,-3.53 4.95,-6.72 7.43,-10.25 a 53.8,53.8 0 0 0 6.71,-10.6099998 c 0.36,-0.7 -1.06,-1.76 -1.76,-1.06 a 49.69,49.69 0 0 0 -7.43,7.4299998 c -2.47,3.18 -5.3,6.36 -7.77,9.54 -4.949999,6.36 -9.549999,12.37 -14.139999,18.74 -2.83,3.88 -5.3,7.77 -8.13,11.31 l -3.54,5.3 c -4.95,7.77 -9.89,15.55 -14.49,23.33 -15.59,26.780004 -29.74,55.430004 -33.59,86.530004 -1.06,8.13 -1.41,16.62 1.06,24.39 2.12,6.36 6,12.72 13.07,14.14 a 22.2,22.2 0 0 0 7.4,1.32 36.82,36.82 0 0 0 10.21,-1.44 68.52,68.52 0 0 0 18.41,-8.5 77.34,77.34 0 0 0 8.2,-5.93 c 1.31,-1.07 2.55,-2.21 3.76,-3.38 0.58,-0.6 1.15,-1.22 1.68,-1.87 a 33.64,33.64 0 0 0 5.79,13.07 34.74,34.74 0 0 0 12.359999,10.18 c 9.54,4.77 20,6.3 30.2,7.1 a 235.08,235.08 0 0 0 30.73,-0.28 c 10.21,-0.69 20.36,-1.8 30.49,-3.1 20.24,-2.6 40.36,-5.9 60.48,-9.16 40.22,-6.57 80.48,-13.1 121.09,-16.58 q 15.21,-1.33 30.49,-2 c 10.18,-0.41 20.37,-0.58 30.55,-0.38 a 378.05,378.05 0 0 1 60.77,5.67 377.94,377.94 0 0 0 -60.8,-5.93 z"
     id="path78" />
</svg>
